<svg width="19" height="19" viewBox="0 0 19 19" fill="none" xmlns="http://www.w3.org/2000/svg">
<path d="M4 9C4 6.6 2.66667 6 2 6C1.83333 6 1 6 0.5 6.5C0 7 0 8 0.5 10C0.9 11.6 2 12 2.5 12C3 12 4 11.4 4 9Z" fill="#96BEE6"/>
<path d="M8 4C8 2.4 7.5 1.5 6 1.5C4.5 1.5 4 4 4 5.5C4 7 5.5 8.5 6.5 8C7.5 7.5 8 6 8 4Z" fill="#96BEE6"/>
<path d="M13 2.5C12.5 2 11.5 1 10.5 1C8.5 1.5 8.5 4.5 9 6C9.5 7.5 10.5 8 11 8C11.5 8 12 8 13 6.5C14 5 13.5 3 13 2.5Z" fill="#96BEE6"/>
<path d="M18 9C18 7.5 16.5 6.5 15.5 6.5C14 6.5 13.5 8.5 13.5 10C13.5 11.5 14.5 13.5 16 13C17.5 12.5 18 10.5 18 9Z" fill="#96BEE6"/>
<path d="M11.5 9.5C10.7 8.7 8.5 8.5 7.5 8.5C6 8.5 5 11 4 12.5C3 14 2 15 3 16.5C4 18 5 18 5.5 18C6 18 7.5 17 8.5 17.5C9.5 18 10.5 18 12 18C13.5 18 15 17.5 15 16C15 14.5 14.5 13.5 13.5 12.5C12.5 11.5 12.5 10.5 11.5 9.5Z" fill="#96BEE6"/>
<path d="M4 9C4 6.6 2.66667 6 2 6C1.83333 6 1 6 0.5 6.5C0 7 0 8 0.5 10C0.9 11.6 2 12 2.5 12C3 12 4 11.4 4 9Z" stroke="#96BEE6" stroke-width="0.2"/>
<path d="M8 4C8 2.4 7.5 1.5 6 1.5C4.5 1.5 4 4 4 5.5C4 7 5.5 8.5 6.5 8C7.5 7.5 8 6 8 4Z" stroke="#96BEE6" stroke-width="0.2"/>
<path d="M13 2.5C12.5 2 11.5 1 10.5 1C8.5 1.5 8.5 4.5 9 6C9.5 7.5 10.5 8 11 8C11.5 8 12 8 13 6.5C14 5 13.5 3 13 2.5Z" stroke="#96BEE6" stroke-width="0.2"/>
<path d="M18 9C18 7.5 16.5 6.5 15.5 6.5C14 6.5 13.5 8.5 13.5 10C13.5 11.5 14.5 13.5 16 13C17.5 12.5 18 10.5 18 9Z" stroke="#96BEE6" stroke-width="0.2"/>
<path d="M11.5 9.5C10.7 8.7 8.5 8.5 7.5 8.5C6 8.5 5 11 4 12.5C3 14 2 15 3 16.5C4 18 5 18 5.5 18C6 18 7.5 17 8.5 17.5C9.5 18 10.5 18 12 18C13.5 18 15 17.5 15 16C15 14.5 14.5 13.5 13.5 12.5C12.5 11.5 12.5 10.5 11.5 9.5Z" stroke="#96BEE6" stroke-width="0.2"/>
</svg>
