<?xml version="1.0" encoding="UTF-8"?>
<svg id="Layer_2" data-name="Layer 2" xmlns="http://www.w3.org/2000/svg" viewBox="0 0 697.904 699.2342">
  <path d="M216.5016,483.0691h0c18.8697,18.8697,49.4636,18.8697,68.3333,0L600.0016,167.9025l1.5,133.88c.2779,26.2894,21.6684,47.4549,47.9592,47.4549h0c26.4537,0,47.9124-21.4188,47.9618-47.8724l.4813-251.2691C697.9569,22.4817,675.6141,.053,647.9999,0c-.0639-.0001-.1278-.0001-.1917,0l-251.2691,.4813c-26.4536,.0494-47.8724,21.5081-47.8724,47.9618h0c0,26.2909,21.1655,47.6813,47.4549,47.9592l133.88,1.5L214.8349,413.0692c-18.8697,18.8697-18.8697,49.4635,0,68.3332h0l1.6667,1.6667Z"/>
  <path d="M297.3333,148.5675h0c0,27.6142-22.3858,50-50,50H97.3333v400H496.6667v-149c0-28.1665,22.8335-51,51-51h0c28.1665,0,51,22.8335,51,51v149.6667c0,55.2285-44.7715,100-100,100H100c-55.2285,0-100-44.7715-100-100V198.5675c0-55.2285,44.7715-100,100-100H247.3334c27.6142,0,49.9999,22.3858,49.9999,50Z"/>
</svg>